<?xml version="1.0" encoding="iso-8859-1"?>
<!-- Generator: Adobe Illustrator 19.0.0, SVG Export Plug-In . SVG Version: 6.00 Build 0)  -->
<svg version="1.1" id="Capa_1" xmlns="http://www.w3.org/2000/svg" xmlns:xlink="http://www.w3.org/1999/xlink" x="0px" y="0px"
	 viewBox="0 0 512 512" style="enable-background:new 0 0 512 512;" xml:space="preserve">
<path style="fill:#30303A;" d="M452.207,449.358H59.793C26.77,449.358,0,422.588,0,389.564V122.435
	c0-33.023,26.77-59.793,59.793-59.793h392.414c33.023,0,59.793,26.77,59.793,59.793v267.13
	C512,422.588,485.23,449.358,452.207,449.358z"/>
<path style="fill:#777E84;" d="M283.922,117.528l-23.808,18.386c-7.691,5.939-17.135,9.162-26.853,9.162H70.024
	c-13.304,0-24.088,10.785-24.088,24.088v210.382c0,13.304,10.785,24.088,24.088,24.088h371.953
	c13.304,0,24.088-10.785,24.088-24.088V132.454c0-13.304-10.785-24.088-24.088-24.088H310.774
	C301.056,108.366,291.613,111.589,283.922,117.528z"/>
<rect x="77.2" y="178.7" style="fill:#A1EA13;" width="357.599" height="121.324"/>
<polygon style="fill:#E4FC9A;" points="434.799,178.703 434.799,300.027 263.704,300.027 334.171,178.703 "/>
<path style="fill:#EC0829;" d="M119.4,329.137H96.361c-10.581,0-19.159,8.578-19.159,19.159l0,0
	c0,10.581,8.578,19.159,19.159,19.159H119.4c10.581,0,19.159-8.578,19.159-19.159l0,0
	C138.559,337.714,129.982,329.137,119.4,329.137z"/>
<g>
	<path style="fill:#E4E7EC;" d="M316.892,329.137h-23.038c-10.581,0-19.159,8.578-19.159,19.159l0,0
		c0,10.581,8.578,19.159,19.159,19.159h23.038c10.581,0,19.159-8.578,19.159-19.159l0,0
		C336.052,337.714,327.474,329.137,316.892,329.137z"/>
	<path style="fill:#E4E7EC;" d="M218.146,329.137h-23.038c-10.581,0-19.159,8.578-19.159,19.159l0,0
		c0,10.581,8.578,19.159,19.159,19.159h23.038c10.581,0,19.159-8.578,19.159-19.159l0,0
		C237.305,337.714,228.728,329.137,218.146,329.137z"/>
	<path style="fill:#E4E7EC;" d="M415.639,329.137H392.6c-10.581,0-19.159,8.578-19.159,19.159l0,0
		c0,10.581,8.578,19.159,19.159,19.159h23.038c10.581,0,19.159-8.578,19.159-19.159l0,0
		C434.798,337.714,426.221,329.137,415.639,329.137z"/>
</g>
<g>
</g>
<g>
</g>
<g>
</g>
<g>
</g>
<g>
</g>
<g>
</g>
<g>
</g>
<g>
</g>
<g>
</g>
<g>
</g>
<g>
</g>
<g>
</g>
<g>
</g>
<g>
</g>
<g>
</g>
</svg>
